<?xml version="1.0" encoding="utf-8"?>
<!-- Generator: Adobe Illustrator 22.0.1, SVG Export Plug-In . SVG Version: 6.00 Build 0)  -->
<svg version="1.1" id="Layer_1" xmlns="http://www.w3.org/2000/svg" xmlns:xlink="http://www.w3.org/1999/xlink" x="0px" y="0px"
	 viewBox="0 0 128 128" style="enable-background:new 0 0 128 128;" xml:space="preserve">
<style type="text/css">
	.st0{clip-path:url(#XMLID_5_);}
	.st1{fill:none;}
	.st2{fill:url(#SVGID_1_);}
	.st3{fill:url(#SVGID_2_);}
	.st4{fill:url(#SVGID_3_);}
	.st5{fill:url(#SVGID_4_);}
	.st6{fill:url(#SVGID_5_);}
	.st7{fill:url(#SVGID_6_);}
</style>
<g>
	<defs>
		<path id="XMLID_143_" d="M66.3,5.9c-1.7-1-3.8-1-5.5,0L14.9,32.4c-1.7,1-2.8,2.8-2.8,4.8v53c0,2,1.1,3.8,2.8,4.8l45.9,26.5
			c1.7,1,3.8,1,5.5,0L112.2,95c1.7-1,2.8-2.8,2.8-4.8v-53c0-2-1.1-3.8-2.8-4.8L66.3,5.9z"/>
	</defs>
	<linearGradient id="XMLID_4_" gradientUnits="userSpaceOnUse" x1="82.2296" y1="25.5967" x2="40.7697" y2="110.1748">
		<stop  offset="0" style="stop-color:#3F873F"/>
		<stop  offset="0.3296" style="stop-color:#3F8B3D"/>
		<stop  offset="0.6367" style="stop-color:#3E9638"/>
		<stop  offset="0.9341" style="stop-color:#3DA92E"/>
		<stop  offset="1" style="stop-color:#3DAE2B"/>
	</linearGradient>
	<use xlink:href="#XMLID_143_"  style="overflow:visible;fill-rule:evenodd;clip-rule:evenodd;fill:url(#XMLID_4_);"/>
	<clipPath id="XMLID_5_">
		<use xlink:href="#XMLID_143_"  style="overflow:visible;"/>
	</clipPath>
	<g class="st0">
		<path class="st1" d="M60.7,5.9l-46,26.5c-1.7,1-3,2.8-3,4.8v53c0,1.3,0.6,2.5,1.4,3.5L64.9,5.3C63.5,5,62,5.1,60.7,5.9z"/>
		<path class="st1" d="M65.1,122c0.4-0.1,0.9-0.3,1.3-0.5L112.3,95c1.7-1,2.9-2.8,2.9-4.8v-53c0-1.5-0.7-2.8-1.7-3.8L65.1,122z"/>
		<linearGradient id="SVGID_1_" gradientUnits="userSpaceOnUse" x1="56.5857" y1="69.8602" x2="172.919" y2="-16.0931">
			<stop  offset="0.1376" style="stop-color:#3F873F"/>
			<stop  offset="0.4016" style="stop-color:#52A044"/>
			<stop  offset="0.7129" style="stop-color:#64B749"/>
			<stop  offset="0.9081" style="stop-color:#6ABF4B"/>
		</linearGradient>
		<path class="st2" d="M112.3,32.4l-46-26.5c-0.5-0.3-0.9-0.5-1.4-0.6L13.2,93.7c0.4,0.5,1,0.9,1.5,1.3l46.1,26.5
			c1.3,0.8,2.9,0.9,4.3,0.5l48.4-88.7C113.2,32.9,112.8,32.6,112.3,32.4z"/>
	</g>
	<g class="st0">
		<path class="st1" d="M115.2,90.2v-53c0-2-1.2-3.8-2.9-4.8l-46-26.5c-0.5-0.3-1.1-0.5-1.7-0.6l50.4,86.2
			C115.2,91,115.2,90.6,115.2,90.2z"/>
		<path class="st1" d="M14.7,32.4c-1.7,1-3,2.8-3,4.8v53c0,2,1.3,3.8,3,4.8l46.1,26.5c1.1,0.6,2.3,0.9,3.5,0.7L15,32.2L14.7,32.4z"
			/>
		<linearGradient id="SVGID_2_" gradientUnits="userSpaceOnUse" x1="10.518" y1="-3.6809" x2="116.6236" y2="-3.6809">
			<stop  offset="9.191646e-02" style="stop-color:#6ABF4B"/>
			<stop  offset="0.2871" style="stop-color:#64B749"/>
			<stop  offset="0.5984" style="stop-color:#52A044"/>
			<stop  offset="0.8624" style="stop-color:#3F873F"/>
		</linearGradient>
		<polygon class="st3" points="59.3,-3.9 58.6,-3.5 59.5,-3.5 		"/>
		<linearGradient id="SVGID_3_" gradientUnits="userSpaceOnUse" x1="10.518" y1="63.6497" x2="116.6236" y2="63.6497">
			<stop  offset="9.191646e-02" style="stop-color:#6ABF4B"/>
			<stop  offset="0.2871" style="stop-color:#64B749"/>
			<stop  offset="0.5984" style="stop-color:#52A044"/>
			<stop  offset="0.8624" style="stop-color:#3F873F"/>
		</linearGradient>
		<path class="st4" d="M112.3,95c1.3-0.8,2.3-2.1,2.7-3.5L64.6,5.3c-1.3-0.3-2.7-0.1-3.9,0.6L15,32.2l49.4,90c0.7-0.1,1.4-0.3,2-0.7
			L112.3,95z"/>
		<linearGradient id="SVGID_4_" gradientUnits="userSpaceOnUse" x1="10.518" y1="93.9407" x2="116.6236" y2="93.9407">
			<stop  offset="9.191646e-02" style="stop-color:#6ABF4B"/>
			<stop  offset="0.2871" style="stop-color:#64B749"/>
			<stop  offset="0.5984" style="stop-color:#52A044"/>
			<stop  offset="0.8624" style="stop-color:#3F873F"/>
		</linearGradient>
		<polygon class="st5" points="116.6,94.1 116.3,93.6 116.3,94.3 		"/>
		<linearGradient id="SVGID_5_" gradientUnits="userSpaceOnUse" x1="10.518" y1="107.6315" x2="116.6236" y2="107.6315">
			<stop  offset="9.191646e-02" style="stop-color:#6ABF4B"/>
			<stop  offset="0.2871" style="stop-color:#64B749"/>
			<stop  offset="0.5984" style="stop-color:#52A044"/>
			<stop  offset="0.8624" style="stop-color:#3F873F"/>
		</linearGradient>
		<path class="st6" d="M112.3,95l-45.9,26.5c-0.6,0.4-1.3,0.6-2,0.7l0.9,1.7l51-29.5v-0.7l-1.3-2.2C114.7,92.9,113.7,94.2,112.3,95z
			"/>
		<linearGradient id="SVGID_6_" gradientUnits="userSpaceOnUse" x1="132.0819" y1="23.0892" x2="66.6427" y2="156.5851">
			<stop  offset="0" style="stop-color:#3F873F"/>
			<stop  offset="0.3296" style="stop-color:#3F8B3D"/>
			<stop  offset="0.6367" style="stop-color:#3E9638"/>
			<stop  offset="0.9341" style="stop-color:#3DA92E"/>
			<stop  offset="1" style="stop-color:#3DAE2B"/>
		</linearGradient>
		<path class="st7" d="M112.3,95l-45.9,26.5c-0.6,0.4-1.3,0.6-2,0.7l0.9,1.7l51-29.5v-0.7l-1.3-2.2C114.7,92.9,113.7,94.2,112.3,95z
			"/>
	</g>
</g>
</svg>
